
<svg xmlns="http://www.w3.org/2000/svg" width="34" height="34">
    <defs>
        <linearGradient id="a" x1="0%" y1="50%" y2="50%">
            <stop offset="0%" stop-color="#865EE8"/>
            <stop offset="100%" stop-color="#6536E2"/>
        </linearGradient>
    </defs>
    <path fill="url(#a)" fill-rule="evenodd" d="M24.46747 21.975333h-.000567v-.000113c0 .817133-.662211.870967-1.478783.870967H11.011427c-.816912 0-1.478557-.053834-1.478557-.870967v-.14076c0-.587747.345216-1.090833.841052-1.329627l.469317-4.052006c0-2.966274 2.097814-5.442267 4.890593-6.026274V8.853487c0-.699267.56701-1.266387 1.266621-1.266387.699272 0 1.266282.56712 1.266282 1.266387v1.57318c2.792892.583893 4.890593 3.05966 4.890593 6.026273l.46943 4.052573c.495836.239134.840712.741314.840712 1.32906v.14076zm-7.467583 4.42578c-1.220155 0-2.209902-.988946-2.209902-2.209886h4.419463c.000227 1.22094-.989406 2.209886-2.209561 2.209886zM16.999547 0C7.611177 0 0 7.61158 0 16.99966 0 26.38774 7.611177 34 16.999547 34 26.388029 34 34 26.388193 34 16.99966 34 7.611127 26.38803 0 16.999547 0z"/>
</svg>