<?xml version="1.0" encoding="UTF-8"?>
<svg width="15px" height="19px" viewBox="0 0 15 19" version="1.1" xmlns="http://www.w3.org/2000/svg" xmlns:xlink="http://www.w3.org/1999/xlink">
    <!-- Generator: Sketch 49.3 (51167) - http://www.bohemiancoding.com/sketch -->
    <title>Slice</title>
    <desc>Created with Sketch.</desc>
    <defs></defs>
    <g id="Page-1" stroke="none" stroke-width="1" fill="none" fill-rule="evenodd">
        <path d="M14.9345996,14.3882333 L14.9340329,14.3882333 L14.9340329,14.38812 C14.9340329,15.2052533 14.2718218,15.2590867 13.4552497,15.2590867 L1.47855652,15.2590867 C0.661644411,15.2590867 0,15.2052533 0,14.38812 L0,14.24736 C0,13.6596133 0.345215635,13.1565267 0.841052274,12.9177333 L1.31036874,8.86572667 C1.31036874,5.89945333 3.40818272,3.42346 6.20096134,2.83945333 L6.20096134,1.26638667 C6.20096134,0.56712 6.76797179,0 7.46758312,0 C8.16685445,0 8.73386489,0.56712 8.73386489,1.26638667 L8.73386489,2.83956667 C11.5267568,3.42346 13.6244575,5.89922667 13.6244575,8.86584 L14.0938873,12.9184133 C14.5897239,13.1575467 14.9345996,13.6597267 14.9345996,14.2474733 L14.9345996,14.3882333 Z M7.46701645,18.8140133 C6.24686165,18.8140133 5.25711505,17.8250667 5.25711505,16.6041267 L9.67657788,16.6041267 C9.67680451,17.8250667 8.68717125,18.8140133 7.46701645,18.8140133 Z" id="Combined-Shape" fill="#FFFFFF"></path>
    </g>
</svg>