<svg xmlns="http://www.w3.org/2000/svg" width="25" height="25" viewBox="0 0 25 25">
    <path fill="#CACED5" fill-rule="evenodd" stroke="#CACED5" stroke-width=".6" d="M14.236 12.5l9.418 9.418a1.205 1.205 0 0 1 .001 1.697l-.04.04a1.198 1.198 0 0 1-1.698-.001L12.5 14.236l-9.418 9.418a1.205 1.205 0 0 1-1.697.001l-.04-.04a1.197 1.197 0 0 1 .001-1.697l9.417-9.418-9.417-9.418a1.205 1.205 0 0 1-.001-1.697l.04-.04a1.197 1.197 0 0 1 1.697.001l9.418 9.418 9.417-9.418a1.205 1.205 0 0 1 1.697-.001l.041.04c.468.468.47 1.225 0 1.697l-9.42 9.418z"/>
</svg>
