
<svg xmlns="http://www.w3.org/2000/svg" xmlns:xlink="http://www.w3.org/1999/xlink" width="20" height="21">
    <defs>
        <path id="a" d="M.000155.063563h16.128813v10.818134H.000155z"/>
    </defs>
    <g fill="none" fill-rule="evenodd">
        <g transform="translate(3.870968 5.027273)">
            <mask id="b" fill="#fff">
                <use xlink:href="#a"/>
            </mask>
            <path fill="#A2A2AF" d="M11.329574.343134C10.951768-.029585 10.33893-.029648 9.96093.34307c-.377806.372782-.37787.977136 0 1.349918l2.864194 2.8252H.967897c-.534516 0-.967742.427382-.967742.954546 0 .527163.433226.954545.967742.954545h11.857097L9.960928 9.252225c-.37787.372781-.37787.977136 0 1.349918.189032.18639.43671.279554.684387.279554.247613 0 .49529-.093163.684258-.279554l4.516-4.454418c.377871-.372719.377871-.977137 0-1.349919l-4.516-4.454672z" mask="url(#b)"/>
        </g>
        <path fill="#A2A2AF" d="M9.354839 21c.534451 0 .967742-.427382.967742-.954545 0-.527164-.43329-.954546-.967742-.954546H1.935484V1.909091h7.419355c.534451 0 .967742-.427382.967742-.954546C10.32258.427382 9.88929 0 9.354839 0H.967742C.43329 0 0 .427382 0 .954545v19.09091C0 20.572618.43329 21 .967742 21h8.387097z"/>
    </g>
</svg>