<svg xmlns="http://www.w3.org/2000/svg" xmlns:xlink="http://www.w3.org/1999/xlink" width="130" height="20" viewBox="0 0 130 20">
    <defs>
        <path id="a" d="M0 .136v18.403h24.557V.136H0z"/>
        <path id="c" d="M.101.292h19.051v18.875H.101z"/>
        <path id="d" d="M.25.292h19.052v18.875H.251z"/>
        <path id="e" d="M0 0h15v19H0z"/>
    </defs>
    <g fill="none" fill-rule="evenodd">
        <g>
            <mask id="b" fill="#fff">
                <use xlink:href="#a"/>
            </mask>
            <path fill="#5E20E4" d="M15.533.136C12.008.136 8.88 2.199 7.4 5.203V.812c0-.162.017-.269-.093-.366a.407.407 0 0 0-.331-.123H4.06c-.308 0-.561-.01-.759.015a1.38 1.38 0 0 0-.606.23L.556 1.876C.208 2.07 0 2.313 0 2.62v3.354c0 .153.076.287.159.4a.44.44 0 0 0 .367.17s.079-.013.153-.062l2.07-1.324v12.588c0 .121.094.324.17.433a.634.634 0 0 0 .466.252h3.601c.373 0 .413-.354.413-.71v-4.25c1.48 3.005 4.609 5.068 8.134 5.068 4.984 0 9.024-4.12 9.024-9.202 0-5.081-4.04-9.201-9.024-9.201" mask="url(#b)"/>
        </g>
        <path fill="#1BFDBF" d="M23.273 13.757a5.885 5.885 0 0 1-1.189-1.914 6.434 6.434 0 0 1-.425-2.347c0-.842.142-1.631.425-2.366a5.875 5.875 0 0 1 1.19-1.92c.213-.228.447-.432.694-.62A9.47 9.47 0 0 0 21.632 2c-.307.241-.6.501-.878.782a9.515 9.515 0 0 0-2.421 4.193A9.454 9.454 0 0 0 18 9.495c0 .876.111 1.716.333 2.521a9.28 9.28 0 0 0 .948 2.255A9.58 9.58 0 0 0 21.687 17 9.464 9.464 0 0 0 24 14.402a5.518 5.518 0 0 1-.727-.645"/>
        <path fill="#292E37" d="M23.255 4.834c.33-.275.687-.516 1.079-.71a4.927 4.927 0 0 1 2.225-.504c.642 0 1.25.11 1.826.327a5.92 5.92 0 0 1 1.6.915c.167.113.31.157.428.13.12-.025.238-.126.357-.3l1.154-2.156c.088-.192.1-.358.036-.497a.787.787 0 0 0-.298-.34 8.91 8.91 0 0 0-2.39-1.261A8.219 8.219 0 0 0 26.581 0c-.84 0-1.648.12-2.42.36A8.893 8.893 0 0 0 21 2.102a9.74 9.74 0 0 1 2.255 2.732M31.924 16.47l-1.178-2.18c-.12-.174-.236-.269-.351-.287-.115-.017-.26.031-.435.144a5.66 5.66 0 0 1-1.607.913 5.269 5.269 0 0 1-1.845.326 4.984 4.984 0 0 1-3.273-1.172A9.744 9.744 0 0 1 21 16.95c.298.25.61.482.937.693.675.435 1.399.77 2.173 1.005.773.235 1.58.352 2.422.352.944 0 1.851-.15 2.72-.45a8.88 8.88 0 0 0 2.41-1.272.81.81 0 0 0 .298-.326c.063-.13.051-.291-.036-.483M49.54 15.884c1.768 0 2.82-.934 2.82-2.46 0-1.498-.947-2.541-2.768-2.541h-3.006v5h2.954zm-.37-8.05c1.663 0 2.663-.936 2.663-2.378 0-1.445-.921-2.355-2.69-2.355h-2.557v4.734h2.584zM49.724 0c3.64 0 5.695 2.167 5.695 5.108 0 1.95-1.158 3.53-2.715 4.065C54.524 9.627 56 11.31 56 13.665c0 3.075-2.267 5.293-5.774 5.293H43.7a.7.7 0 0 1-.7-.7V.7a.7.7 0 0 1 .7-.7h6.024zM104.193 11.24l-2.417 2.614v4.713a.6.6 0 0 1-.6.6H98.59a.6.6 0 0 1-.6-.6V.648a.6.6 0 0 1 .6-.6h2.586a.6.6 0 0 1 .6.6v8.058l7.62-8.46a.6.6 0 0 1 .445-.198h3.327a.6.6 0 0 1 .44 1.008l-6.78 7.326 7.083 9.834a.6.6 0 0 1-.487.95h-3.266a.6.6 0 0 1-.488-.25l-5.477-7.676z"/>
        <g transform="translate(115)">
            <mask id="f" fill="#fff">
                <use xlink:href="#e"/>
            </mask>
            <path fill="#292E37" d="M10.998 5.287c-.75-1.434-1.904-2.15-3.46-2.15-1.902 0-3.149 1.105-3.149 2.315 0 1.003.708 1.798 2.184 2.055l2.808.49C13.043 8.638 15 10.8 15 13.37 15 16.172 12.419 19 7.737 19c-3.343 0-5.9-1.68-7.67-5.04a.582.582 0 0 1 .378-.837l2.466-.594a.582.582 0 0 1 .655.3c1.026 2.006 2.425 3.009 4.2 3.009 2.1 0 3.262-.952 3.262-2.236 0-1.055-.88-1.878-2.442-2.16l-2.808-.513C2.572 10.337.502 8.459.502 5.709.502 2.469 3.708 0 7.51 0c3.02 0 5.306 1.358 6.858 4.075a.582.582 0 0 1-.349.85l-2.35.653a.582.582 0 0 1-.671-.291z" mask="url(#f)"/>
        </g>
        <path fill="#292E37" d="M61.496 9.519c0 .837.136 1.621.407 2.354.27.734.649 1.374 1.136 1.92a5.344 5.344 0 0 0 1.73 1.293 5.09 5.09 0 0 0 2.202.472c.792 0 1.524-.157 2.195-.472a5.333 5.333 0 0 0 1.737-1.293 6.054 6.054 0 0 0 1.142-1.92 6.66 6.66 0 0 0 .411-2.354c0-.845-.137-1.636-.411-2.374a6.04 6.04 0 0 0-1.142-1.926 5.414 5.414 0 0 0-1.737-1.298 5.052 5.052 0 0 0-2.195-.479c-.801 0-1.535.16-2.202.479a5.426 5.426 0 0 0-1.73 1.298 5.944 5.944 0 0 0-1.136 1.926 6.83 6.83 0 0 0-.407 2.374m-3.496 0c0-.878.106-1.721.318-2.529a9.804 9.804 0 0 1 .906-2.274 9.594 9.594 0 0 1 1.407-1.932A8.865 8.865 0 0 1 64.6.342 8.351 8.351 0 0 1 66.994 0c.824 0 1.62.114 2.39.342a8.944 8.944 0 0 1 2.154.957c.667.41 1.275.905 1.825 1.485a9.302 9.302 0 0 1 1.407 1.932c.388.708.69 1.466.906 2.274.216.808.324 1.65.324 2.529 0 .878-.108 1.72-.324 2.528a9.909 9.909 0 0 1-.906 2.262 9.292 9.292 0 0 1-1.407 1.914 9.29 9.29 0 0 1-1.825 1.485A8.62 8.62 0 0 1 66.994 19c-.832 0-1.63-.112-2.395-.336a8.642 8.642 0 0 1-2.15-.956 9.133 9.133 0 0 1-1.818-1.485 9.586 9.586 0 0 1-2.313-4.176A9.931 9.931 0 0 1 58 9.52M81.496 9.519c0 .837.136 1.621.407 2.354.27.734.649 1.374 1.136 1.92a5.344 5.344 0 0 0 1.73 1.293 5.09 5.09 0 0 0 2.202.472c.792 0 1.524-.157 2.195-.472a5.333 5.333 0 0 0 1.737-1.293 6.054 6.054 0 0 0 1.142-1.92 6.66 6.66 0 0 0 .411-2.354c0-.845-.137-1.636-.411-2.374a6.04 6.04 0 0 0-1.142-1.926 5.414 5.414 0 0 0-1.737-1.298 5.052 5.052 0 0 0-2.195-.479c-.801 0-1.535.16-2.202.479a5.426 5.426 0 0 0-1.73 1.298 5.944 5.944 0 0 0-1.136 1.926 6.83 6.83 0 0 0-.407 2.374m-3.496 0c0-.878.106-1.721.318-2.529a9.804 9.804 0 0 1 .906-2.274 9.594 9.594 0 0 1 1.407-1.932A8.865 8.865 0 0 1 84.6.342 8.351 8.351 0 0 1 86.994 0c.824 0 1.62.114 2.39.342a8.944 8.944 0 0 1 2.154.957c.667.41 1.275.905 1.825 1.485a9.302 9.302 0 0 1 1.407 1.932c.388.708.69 1.466.906 2.274.216.808.324 1.65.324 2.529 0 .878-.108 1.72-.324 2.528a9.909 9.909 0 0 1-.906 2.262 9.292 9.292 0 0 1-1.407 1.914 9.29 9.29 0 0 1-1.825 1.485A8.62 8.62 0 0 1 86.994 19c-.832 0-1.63-.112-2.395-.336a8.642 8.642 0 0 1-2.15-.956 9.133 9.133 0 0 1-1.818-1.485 9.586 9.586 0 0 1-2.313-4.176A9.931 9.931 0 0 1 78 9.52"/>
    </g>
</svg>
