<svg xmlns="http://www.w3.org/2000/svg" xmlns:xlink="http://www.w3.org/1999/xlink" width="99" height="17" viewBox="0 0 99 17">
    <defs>
        <path id="a" d="M11.763 16.077V.157H.073v15.92z"/>
        <path id="c" d="M0 .117v15.856h21.196V.117H0z"/>
    </defs>
    <g fill="none" fill-rule="evenodd">
        <path fill="#292E37" d="M29.743.893c0-.124.087-.203.172-.293.085-.09.243-.106.387-.106h2.085c.28 0 .275.094.275.4v12.23h6.155c.123 0 .21.015.3.102.088.087.114.176.114.321v1.904c0 .285-.114.459-.414.459h-8.536c-.3 0-.538-.153-.538-.459V.893zM43.08 8.198c0 .701.118 1.359.353 1.972.235.614.564 1.15.987 1.608a4.559 4.559 0 0 0 3.415 1.478 4.57 4.57 0 0 0 3.414-1.478c.422-.458.753-.994.992-1.608a5.4 5.4 0 0 0 .357-1.972c0-.707-.12-1.37-.357-1.987a5.024 5.024 0 0 0-.992-1.613 4.692 4.692 0 0 0-1.508-1.087 4.524 4.524 0 0 0-1.907-.401c-.695 0-1.332.134-1.912.4-.579.268-1.08.63-1.502 1.088a4.942 4.942 0 0 0-.987 1.613 5.537 5.537 0 0 0-.353 1.987m-3.036 0a8.036 8.036 0 0 1 2.285-5.64c.474-.485 1-.9 1.58-1.243a7.936 7.936 0 0 1 1.865-.801 7.502 7.502 0 0 1 2.08-.287 7.52 7.52 0 0 1 2.076.287 7.779 7.779 0 0 1 3.456 2.045 7.809 7.809 0 0 1 1.221 1.618c.338.593.6 1.227.787 1.904.188.676.282 1.382.282 2.117 0 .736-.094 1.442-.282 2.118a8.129 8.129 0 0 1-.787 1.894 7.803 7.803 0 0 1-1.221 1.603 8.017 8.017 0 0 1-1.585 1.243 7.626 7.626 0 0 1-1.871.801 7.638 7.638 0 0 1-2.075.281 7.62 7.62 0 0 1-3.947-1.082 7.88 7.88 0 0 1-1.58-1.243 8.05 8.05 0 0 1-1.22-1.603 7.848 7.848 0 0 1-.788-1.894 8.036 8.036 0 0 1-.276-2.118M60.398 9.801c0 .486.147.944.304 1.373.156.43.412.807.698 1.13.287.322.646.577 1.045.764.399.188.845.281 1.322.281.477 0 .918-.093 1.313-.28a3.167 3.167 0 0 0 1.024-.765 3.43 3.43 0 0 0 .647-1.13c.156-.43.216-.887.216-1.373V.914c0-.124.066-.213.158-.304.092-.09.226-.116.362-.116h2.024c.123 0 .17.023.28.106.109.083.096.176.096.314v8.887c0 .874-.096 1.696-.423 2.466-.327.77-.742 1.445-1.31 2.024a6.263 6.263 0 0 1-1.972 1.368c-.757.333-1.556.5-2.415.5a5.94 5.94 0 0 1-1.652-.229 6.21 6.21 0 0 1-1.49-.645 6.41 6.41 0 0 1-2.248-2.279 6.52 6.52 0 0 1-.653-1.52 6.292 6.292 0 0 1-.246-1.685V.914c0-.104.062-.187.144-.288.081-.1.204-.132.327-.132h2.116c.095 0 .129.026.238.116.109.09.095.18.095.304v8.887zM75.726 3.28v9.844h2.007c.682 0 1.324-.148 1.927-.387a4.88 4.88 0 0 0 1.58-1.018c.45-.43.806-.95 1.068-1.547a4.847 4.847 0 0 0 .394-1.97c0-.715-.131-1.375-.394-1.98a4.845 4.845 0 0 0-1.068-1.56 4.874 4.874 0 0 0-1.58-1.014 5.05 5.05 0 0 0-1.927-.368h-2.007zm10.033 4.918c0 .736-.092 1.435-.276 2.097a7.563 7.563 0 0 1-2.01 3.408A7.55 7.55 0 0 1 81.9 14.89a7.84 7.84 0 0 1-1.865.754 8.067 8.067 0 0 1-2.076.266h-4.702c-.055 0-.11-.004-.164-.011a.445.445 0 0 1-.158-.052c-.051-.028-.163-.07-.194-.125-.03-.055-.116-.132-.116-.229V.956c0-.347.304-.462.632-.462h4.702a7.734 7.734 0 0 1 3.93 1.007 7.942 7.942 0 0 1 1.58 1.19c.478.464.885.981 1.222 1.557.338.576.6 1.195.788 1.86a7.68 7.68 0 0 1 .28 2.09z"/>
        <g transform="translate(86.491 .03)">
            <mask id="b" fill="#fff">
                <use xlink:href="#a"/>
            </mask>
            <path fill="#292E37" d="M9.473 4.548a.467.467 0 0 1-.245-.068 2.387 2.387 0 0 1-.256-.182l-.02-.01a5.174 5.174 0 0 0-.501-.438 5.179 5.179 0 0 0-.685-.447 4.947 4.947 0 0 0-.813-.354 2.767 2.767 0 0 0-.884-.145c-.382 0-.72.043-1.012.13a2.285 2.285 0 0 0-.736.353 1.52 1.52 0 0 0-.45.526 1.404 1.404 0 0 0-.154.645c0 .25.077.468.23.656.154.187.362.355.624.504.262.15.564.285.905.406.34.122.698.238 1.073.349.64.201 1.273.425 1.897.671a7.64 7.64 0 0 1 1.671.9c.491.354.888.779 1.191 1.275.304.496.455 1.094.455 1.795 0 .756-.15 1.44-.45 2.05-.3.61-.714 1.132-1.242 1.566a5.67 5.67 0 0 1-1.86.999 7.352 7.352 0 0 1-2.295.348 6.642 6.642 0 0 1-1.564-.187 7.492 7.492 0 0 1-1.493-.53c-.477-.23-1.02-.505-1.446-.828-.426-.322-.866-.685-1.23-1.087v.01l.07-.041a.682.682 0 0 1-.18-.48c0-.138.105-.287.269-.447l.154-.156.2-.187c.102-.09.214-.19.33-.302a4.587 4.587 0 0 1 .672-.53.493.493 0 0 1 .24-.094.43.43 0 0 1 .266.094c.082.062.15.16.205.216l.04.08h-.01c.239.186.507.409.803.617.297.208.602.374.915.537.314.163.625.281.936.375.31.094.6.136.874.136.374 0 .726-.051 1.053-.148.327-.098.61-.236.848-.413a1.96 1.96 0 0 0 .562-.64 1.71 1.71 0 0 0 .205-.833 1.21 1.21 0 0 0-.266-.786 2.428 2.428 0 0 0-.695-.572 5.312 5.312 0 0 0-.966-.422 29.75 29.75 0 0 0-1.079-.333 16.042 16.042 0 0 1-2.182-.832c-.624-.298-1.144-.633-1.56-1.004a3.715 3.715 0 0 1-.935-1.25A3.741 3.741 0 0 1 .64 4.486c0-.645.128-1.233.384-1.764.255-.53.618-.985 1.088-1.363C2.582.98 3.148.686 3.81.474 4.471.262 5.21.156 6.028.156c.62 0 1.25.1 1.891.297.64.198 1.234.47 1.78.817a6.735 6.735 0 0 1 .97.754c.143.135.261.267.353.396.092.128.138.237.138.327 0 .09-.02.176-.061.255-.041.08-.12.158-.181.235l-.335.333v-.011c-.182.111-.18.226-.29.344-.108.118-.203.223-.312.317-.11.094-.201.172-.29.234-.088.062-.156.094-.218.094" mask="url(#b)"/>
        </g>
        <g transform="translate(0 .215)">
            <mask id="d" fill="#fff">
                <use xlink:href="#c"/>
            </mask>
            <path fill="#5E20E4" d="M13.407.117c-3.043 0-5.743 1.777-7.02 4.366V.7c0-.139.014-.23-.081-.314A.352.352 0 0 0 6.02.279H3.506C3.239.279 3.02.27 2.85.29c-.17.02-.345.08-.523.199L.48 1.616c-.3.166-.48.377-.48.641v2.89a.59.59 0 0 0 .137.344.38.38 0 0 0 .317.146s.068-.01.132-.052l1.786-1.14V15.29c0 .104.082.28.147.373a.547.547 0 0 0 .403.217H6.03c.321 0 .356-.305.356-.61v-3.663c1.278 2.589 3.978 4.366 7.021 4.366 4.302 0 7.789-3.55 7.789-7.928S17.709.117 13.407.117" mask="url(#d)"/>
        </g>
        <path fill="#1BFDBF" d="M19.534 11.82a4.954 4.954 0 0 1-.986-1.608 5.465 5.465 0 0 1-.353-1.972c0-.707.118-1.37.353-1.987a4.946 4.946 0 0 1 .986-1.613 4.66 4.66 0 0 1 .576-.522 7.922 7.922 0 0 0-1.937-2.175 7.756 7.756 0 0 0-.73.657 8.052 8.052 0 0 0-2.008 3.523 8.036 8.036 0 0 0-.276 2.117c0 .736.092 1.442.276 2.118a7.85 7.85 0 0 0 .787 1.894 8.037 8.037 0 0 0 1.996 2.293 7.92 7.92 0 0 0 1.92-2.183 4.598 4.598 0 0 1-.604-.542"/>
        <path fill="#292E37" d="M20.11 4.118c.284-.22.59-.41.927-.566.58-.267 1.216-.4 1.912-.4.552 0 1.075.087 1.569.26.494.173.952.416 1.375.728.143.09.266.125.368.104.102-.02.204-.1.307-.24l.991-1.716c.075-.153.085-.284.031-.395a.644.644 0 0 0-.256-.271A7.881 7.881 0 0 0 25.28.618a7.572 7.572 0 0 0-2.31-.349c-.723 0-1.417.096-2.081.286a7.936 7.936 0 0 0-1.866.802 7.62 7.62 0 0 0-.85.586 7.92 7.92 0 0 1 1.937 2.175M27.6 14.161l-1.012-1.738c-.102-.138-.203-.215-.301-.229-.1-.013-.224.025-.374.115a4.97 4.97 0 0 1-1.38.728 4.837 4.837 0 0 1-1.584.26 4.556 4.556 0 0 1-1.912-.395 4.7 4.7 0 0 1-.9-.54 7.922 7.922 0 0 1-1.92 2.183 7.657 7.657 0 0 0 4.751 1.635c.812 0 1.59-.12 2.337-.36a7.841 7.841 0 0 0 2.07-1.014c.116-.07.201-.156.256-.26.055-.104.044-.232-.03-.385"/>
    </g>
</svg>
