<?xml version="1.0" encoding="UTF-8"?>
<svg width="124px" height="20px" viewBox="0 0 124 20" version="1.1" xmlns="http://www.w3.org/2000/svg" xmlns:xlink="http://www.w3.org/1999/xlink">
    <!-- Generator: Sketch 49.1 (51147) - http://www.bohemiancoding.com/sketch -->
    <title>Group 34</title>
    <desc>Created with Sketch.</desc>
    <defs>
        <polygon id="path-1" points="14.7337068 19.8603835 14.7337068 0.19295313 0.0918314053 0.19295313 0.0918314053 19.8603835"></polygon>
        <polygon id="path-3" points="1.85845836e-20 0.144749263 1.85845836e-20 19.7312127 26.5482124 19.7312127 26.5482124 0.144749263 0 0.144749263"></polygon>
    </defs>
    <g id="10books" stroke="none" stroke-width="1" fill="none" fill-rule="evenodd">
        <g id="Library---main" transform="translate(-61.000000, -47.000000)">
            <g id="Group-34" transform="translate(61.000000, 47.000000)">
                <path d="M37.2536105,1.10364143 C37.2536105,0.949462471 37.3624003,0.852641757 37.4691332,0.741137332 C37.5756375,0.62986234 37.7742475,0.610131105 37.9536593,0.610131105 L40.5657577,0.610131105 C40.9156678,0.610131105 40.9104111,0.726683055 40.9104111,1.10364143 L40.9104111,16.2115733 L48.619861,16.2115733 C48.7736752,16.2115733 48.8833792,16.2310751 48.9944545,16.3379908 C49.1050727,16.4453655 49.1382125,16.554805 49.1382125,16.7346804 L49.1382125,19.0868273 C49.1382125,19.438548 48.9955973,19.6530678 48.619861,19.6530678 L37.9280617,19.6530678 C37.5523254,19.6530678 37.2536105,19.4642445 37.2536105,19.0868273 L37.2536105,1.10364143 Z" id="Fill-1" fill="#292E37"></path>
                <path d="M53.9591784,10.1274926 C53.9591784,10.9933727 54.1065932,11.8051065 54.4011942,12.5633825 C54.6957952,13.3218879 55.1071853,13.983802 55.6367357,14.5493543 C56.165829,15.1149066 56.7934274,15.5606949 57.5190738,15.8862602 C58.2444916,16.2120551 59.0428169,16.374723 59.9135926,16.374723 C60.7756833,16.374723 61.5719516,16.2120551 62.3017119,15.8862602 C63.0317007,15.5606949 63.660899,15.1149066 64.190678,14.5493543 C64.7195428,13.983802 65.1336754,13.3218879 65.4326189,12.5633825 C65.7311052,11.8051065 65.880577,10.9933727 65.880577,10.1274926 C65.880577,9.25358243 65.7311052,8.43519502 65.4326189,7.67233038 C65.1336754,6.90969518 64.7195428,6.24548673 64.190678,5.67993445 C63.660899,5.11438217 63.0317007,4.66675844 62.3017119,4.33660439 C61.5719516,4.00690921 60.7756833,3.84171747 59.9135926,3.84171747 C59.0428169,3.84171747 58.2444916,4.00690921 57.5190738,4.33660439 C56.7934274,4.66675844 56.165829,5.11438217 55.6367357,5.67993445 C55.1071853,6.24548673 54.6957952,6.90969518 54.4011942,7.67233038 C54.1065932,8.43519502 53.9591784,9.25358243 53.9591784,10.1274926 M50.1561058,10.1274926 C50.1561058,9.21939692 50.2715236,8.34732219 50.501902,7.5117273 C50.732509,6.67613242 51.0609354,5.89193051 51.4878669,5.15935103 C51.9147983,4.42654212 52.4246935,3.7604982 53.0180094,3.16053097 C53.6115538,2.56056375 54.2706921,2.04869879 54.9963385,1.62424779 C55.7219849,1.20002622 56.5011119,0.870331039 57.3334912,0.634703376 C58.1656419,0.399075713 59.0343606,0.280917732 59.9391902,0.280917732 C60.8355634,0.280917732 61.7017681,0.399075713 62.5384897,0.634703376 C63.3749829,0.870331039 64.1561669,1.20002622 64.8818133,1.62424779 C65.6072311,2.04869879 66.2688835,2.56056375 66.8667704,3.16053097 C67.4639716,3.7604982 67.9743239,4.42654212 68.3966843,5.15935103 C68.8195019,5.89193051 69.1479283,6.67613242 69.3828777,7.5117273 C69.6175986,8.34732219 69.7350733,9.21939692 69.7350733,10.1274926 C69.7350733,11.0358178 69.6175986,11.9078925 69.3828777,12.7434874 C69.1479283,13.5788528 68.8195019,14.3589249 68.3966843,15.082786 C67.9743239,15.8071059 67.4639716,16.4669551 66.8667704,17.0625631 C66.2688835,17.6581711 65.6072311,18.1702655 64.8818133,18.5986168 C64.1561669,19.0271976 63.3749829,19.3571223 62.5384897,19.5881613 C61.7017681,19.8198886 60.8355634,19.9355228 59.9391902,19.9355228 C59.0343606,19.9355228 58.1656419,19.8198886 57.3334912,19.5881613 C56.5011119,19.3571223 55.7219849,19.0271976 54.9963385,18.5986168 C54.2706921,18.1702655 53.6115538,17.6581711 53.0180094,17.0625631 C52.4246935,16.4669551 51.9147983,15.8071059 51.4878669,15.082786 C51.0609354,14.3589249 50.732509,13.5788528 50.501902,12.7434874 C50.2715236,11.9078925 50.1561058,11.0358178 50.1561058,10.1274926" id="Fill-3" fill="#292E37"></path>
                <path d="M75.6500169,12.1071321 C75.6500169,12.7070993 75.8337711,13.2726516 76.0303242,13.8037889 C76.2266486,14.3353851 76.5470758,14.8002163 76.9054423,15.198512 C77.2640373,15.597037 77.7145094,15.9120485 78.2141198,16.1433169 C78.7132731,16.3748148 79.272535,16.490449 79.8701934,16.490449 C80.4676232,16.490449 81.0193429,16.3748148 81.5146109,16.1433169 C82.0096503,15.9120485 82.4390958,15.597037 82.7974622,15.198512 C83.1560573,14.8002163 83.4102049,14.3353851 83.6067579,13.8037889 C83.8028539,13.2726516 83.8778183,12.7070993 83.8778183,12.1071321 L83.8778183,1.12945264 C83.8778183,0.975273681 83.9600963,0.86560472 84.0752855,0.754100295 C84.1907033,0.642825303 84.3582305,0.610016388 84.5289573,0.610016388 L87.0644915,0.610016388 C87.2180771,0.610016388 87.2781857,0.638466077 87.4148587,0.741252049 C87.551303,0.84403802 87.5346189,0.958066208 87.5346189,1.12945264 L87.5346189,12.1071321 C87.5346189,13.1868437 87.4148587,14.202314 87.0050684,15.1535431 C86.5952782,16.1047722 86.0764696,16.9383022 85.3636221,17.6539036 C84.6507745,18.3695051 83.8419359,18.932763 82.8943675,19.3439069 C81.946799,19.7552802 80.9457498,19.9610816 79.8701934,19.9610816 C79.1532319,19.9610816 78.4668961,19.8667847 77.8011299,19.6781908 C77.1353636,19.4900557 76.5146217,19.2243723 75.9343331,18.88137 C75.3535875,18.5388266 74.8258655,18.1295182 74.3477388,17.6539036 C73.8696121,17.1782891 73.4605075,16.6492167 73.1192823,16.0662275 C72.7776,15.4834677 72.4877986,14.8580334 72.300159,14.1894657 C72.1122909,13.5211275 71.9932163,12.8268633 71.9932163,12.1071321 L71.9932163,1.12945264 C71.9932163,1.00074074 72.0700091,0.897725336 72.1723995,0.773372665 C72.2747899,0.649249426 72.4283756,0.610016388 72.5819612,0.610016388 L75.2326845,0.610016388 C75.3522162,0.610016388 75.3942694,0.642825303 75.5309423,0.754100295 C75.6676153,0.86560472 75.6500169,0.975273681 75.6500169,1.12945264 L75.6500169,12.1071321 Z" id="Fill-5" fill="#292E37"></path>
                <path d="M94.8482201,4.05155687 L94.8482201,16.2115044 L97.3629562,16.2115044 C98.2165906,16.2115044 99.0213152,16.0295641 99.7766731,15.7340544 C100.53226,15.4383153 101.191626,15.007899 101.755231,14.4763029 C102.318607,13.9451655 102.764508,13.3025238 103.093163,12.5653556 C103.421818,11.8286463 103.586145,11.0143887 103.586145,10.1317601 C103.586145,9.24913143 103.421818,8.43280892 103.093163,7.68715175 C102.764508,6.94172402 102.318607,6.2979351 101.755231,5.75807932 C101.191626,5.21822353 100.53226,4.81075057 99.7766731,4.50629302 C99.0213152,4.20229433 98.2165906,4.05155687 97.3629562,4.05155687 L94.8482201,4.05155687 Z M107.415044,10.1274009 C107.415044,11.0359554 107.299626,11.8993117 107.069248,12.7176991 C106.838641,13.5360865 106.509986,14.2987217 106.083283,15.0058342 C105.656123,15.7127171 105.146228,16.3535234 104.55314,16.9275647 C103.959596,17.5018355 103.302286,17.9902983 102.580982,18.3929531 C101.85945,18.7958374 101.08078,19.1064897 100.244058,19.3249099 C99.4073363,19.5435595 98.5411316,19.652999 97.6447584,19.652999 L91.7545668,19.652999 C91.6860018,19.652999 91.6176653,19.6486398 91.5493289,19.6399213 C91.4812209,19.6314323 91.41517,19.6100951 91.351176,19.5756801 C91.287182,19.5414946 91.1473093,19.4901016 91.1091415,19.4212717 C91.0705165,19.3529007 90.9628695,19.2586037 90.9628695,19.1383809 L90.9628695,1.18089151 C90.9628695,0.752310718 91.3447766,0.610062275 91.7545668,0.610062275 L97.6447584,0.610062275 C98.5411316,0.610062275 99.4052793,0.698393969 100.237887,0.921173386 C101.070038,1.14418224 101.846651,1.4431334 102.568183,1.85450672 C103.289487,2.26588004 103.948854,2.74952475 104.546512,3.32379548 C105.144171,3.89783677 105.654294,4.53611931 106.076655,5.24736152 C106.499472,5.95883317 106.827899,6.72330383 107.062848,7.54605048 C107.297341,8.36879712 107.415044,9.22756473 107.415044,10.1274009 L107.415044,10.1274009 Z" id="Fill-7" fill="#292E37"></path>
                <g id="Group-11" transform="translate(108.332718, 0.036457)">
                    <mask id="mask-2" fill="white">
                        <use xlink:href="#path-1"></use>
                    </mask>
                    <g id="Clip-10"></g>
                    <path d="M11.8653581,5.6176434 C11.7547398,5.6176434 11.6518923,5.58988201 11.5581868,5.53412979 C11.4640242,5.47837758 11.3575199,5.40358243 11.2379882,5.30928548 L11.2126192,5.29643723 C11.0503486,5.13353982 10.8412253,4.95366437 10.5850208,4.75635202 C10.3288162,4.55926909 10.0426715,4.37526385 9.72727246,4.20364798 C9.41118776,4.03226155 9.07179095,3.88657162 8.70885349,3.76657817 C8.34637313,3.64681416 7.97703627,3.58670272 7.60152856,3.58670272 C7.12317333,3.58670272 6.70058431,3.64039004 6.3337615,3.7473058 C5.96648158,3.854451 5.65931033,4.00014094 5.41201919,4.18437561 C5.16427095,4.36883972 4.97640282,4.58496559 4.84818625,4.83367093 C4.72019823,5.08214684 4.65620422,5.34760079 4.65620422,5.63049164 C4.65620422,5.93884956 4.75219523,6.20889217 4.94463436,6.44039004 C5.1366164,6.67165847 5.39670634,6.87975418 5.72536129,7.06375942 C6.05401625,7.24822353 6.43203801,7.41525074 6.85896948,7.56507047 C7.28544385,7.71511963 7.73363048,7.85874467 8.20330081,7.99571616 C9.00551144,8.2444215 9.79743732,8.5206588 10.5786214,8.82488692 C11.3595768,9.12911504 12.0577972,9.4996493 12.6721397,9.93671911 C13.2869393,10.3737889 13.7840356,10.8987316 14.1641144,11.5113176 C14.5439645,12.1241331 14.7338896,12.8633661 14.7338896,13.7287873 C14.7338896,14.6628089 14.5460215,15.5071223 14.1702852,16.261039 C13.7945489,17.0151852 13.2759689,17.6601213 12.6143165,18.1958473 C11.9528927,18.7313438 11.1760512,19.1427171 10.2840204,19.4297378 C9.39198956,19.7169879 8.43367925,19.8603835 7.40931798,19.8603835 C6.75177952,19.8603835 6.09904061,19.783294 5.4504156,19.6288856 C4.80133349,19.4747067 4.17807754,19.2562865 3.58064774,18.9733956 C2.98321794,18.6905048 2.30351012,18.3500262 1.77007434,17.9515011 C1.23641,17.5529761 0.685604404,17.1051229 0.228504328,16.6081711 L0.228504328,16.6210193 L0.316953193,16.5696264 C0.128856511,16.3555654 0.0918314053,16.158253 0.0918314053,15.9783776 C0.0918314053,15.8069912 0.223019127,15.6227565 0.427799961,15.4254441 L0.621381844,15.2327204 L0.871644135,15.001452 C0.999632157,14.890177 1.13973333,14.7658243 1.2848626,14.6286234 C1.43022043,14.4916519 1.57694955,14.3672992 1.72207883,14.2557948 C1.8672081,14.1445198 2.00273827,14.0502229 2.12661239,13.9731334 C2.25025797,13.8960439 2.35081998,13.8572697 2.42784134,13.8572697 C2.54714446,13.8572697 2.65867688,13.8960439 2.76083875,13.9731334 C2.86322917,14.0502229 2.94870688,14.1713635 3.01704334,14.2399639 L3.0684671,14.3395379 L3.0556683,14.3395379 C3.35415465,14.5689708 3.68966611,14.844061 4.06105992,15.1010259 C4.43245373,15.3582203 4.81413229,15.5633333 5.20678126,15.7645461 C5.59943022,15.9659882 5.99002224,16.1123664 6.3785573,16.2282301 C6.76686382,16.3438643 7.13162968,16.3957162 7.47331199,16.3957162 C7.94275376,16.3957162 8.38271259,16.3328515 8.79250281,16.2128581 C9.20206447,16.0926352 9.55608848,15.9219371 9.85503193,15.7032874 C10.1539754,15.4848673 10.3884677,15.2205605 10.5591946,14.9122026 C10.7299215,14.6036152 10.8153992,14.2606129 10.8153992,13.8834251 C10.8153992,13.5064667 10.7043239,13.1827368 10.4824018,12.9126942 C10.2607083,12.642881 9.97022115,12.4070239 9.61185469,12.2055818 C9.25325968,12.0043691 8.85009742,11.8306883 8.40191079,11.6849984 C7.95372417,11.5393084 7.50325204,11.4021075 7.05095152,11.273625 C6.00922044,10.9567781 5.09821999,10.6137758 4.31703596,10.2453065 C3.53608048,9.8768371 2.88471287,9.46339889 2.36430443,9.00476237 C1.8434389,8.54635529 1.45284688,8.032196 1.19275694,7.4622845 C0.931981345,6.89237299 0.802164924,6.25179613 0.802164924,5.54055392 C0.802164924,4.74350377 0.9619214,4.01711898 1.28212,3.36162897 C1.60254716,2.70613897 2.05667608,2.14494592 2.64587808,1.67782039 C3.23485153,1.21069485 3.94335665,0.846814159 4.77139344,0.58526057 C5.59943022,0.323936414 6.52597208,0.192930187 7.5501048,0.192930187 C8.32717493,0.192930187 9.11681531,0.315217961 9.91902594,0.559334644 C10.7212366,0.80368076 11.4640242,1.1400295 12.1471603,1.56861029 C12.3521696,1.69709276 12.5610644,1.84278269 12.7747587,2.00545067 C12.9877673,2.16857752 13.1843203,2.33331039 13.3639607,2.50056703 C13.5429153,2.66759423 13.6901016,2.83049164 13.8055193,2.98880039 C13.9207086,3.14756801 13.9783032,3.2824746 13.9783032,3.39374959 C13.9783032,3.50525402 13.9527056,3.61033432 13.9015104,3.70876106 C13.8503151,3.80741724 13.7515815,3.90377909 13.6745602,3.99807604 L13.2558565,4.40944936 L13.2558565,4.39637168 C13.0273065,4.5335726 13.0302776,4.67513274 12.8933761,4.82082268 C12.7569318,4.96651262 12.6376286,5.09705998 12.5009557,5.2126942 C12.3647399,5.32855785 12.2495507,5.4249197 12.1384754,5.50200918 C12.0274,5.57909866 11.9423794,5.6176434 11.8653581,5.6176434" id="Fill-9" fill="#292E37" mask="url(#mask-2)"></path>
                </g>
                <g id="Group-14" transform="translate(0.000000, 0.265890)">
                    <mask id="mask-4" fill="white">
                        <use xlink:href="#path-3"></use>
                    </mask>
                    <g id="Clip-13"></g>
                    <path d="M16.7927826,0.144749263 C12.9814822,0.144749263 9.59894162,2.33996395 7.99909135,5.53803015 L7.99909135,0.864021632 C7.99909135,0.692176336 8.0176039,0.578377581 7.89807223,0.475132743 C7.77831201,0.372117339 7.71134685,0.344126516 7.54039142,0.344126516 L4.39074335,0.344126516 C4.05706029,0.344126516 3.7834859,0.333572599 3.56979161,0.359269092 C3.35586877,0.385195018 3.13760349,0.459072435 2.91499575,0.605221239 L0.601612265,1.99581449 C0.225190353,2.2018453 -0.000159985027,2.46225172 -0.000159985027,2.78850541 L-0.000159985027,6.35825303 C-0.000159985027,6.52160931 0.0818894786,6.66339889 0.171709644,6.78339233 C0.261301259,6.90384464 0.406201983,6.96395608 0.56870106,6.96395608 C0.56870106,6.96395608 0.653721674,6.9508784 0.734399837,6.89948541 L2.97099051,5.49007866 L2.97099051,18.8875877 C2.97099051,19.016529 3.07338093,19.2328843 3.15497329,19.348748 C3.23610855,19.4646116 3.44568894,19.6164962 3.65961178,19.6164962 L7.55296167,19.6164962 C7.95520974,19.6164962 7.99909135,19.2402262 7.99909135,18.8618912 L7.99909135,14.3379318 C9.59894162,17.5362275 12.9814822,19.7312127 16.7927826,19.7312127 C22.1803927,19.7312127 26.5482124,15.3467486 26.5482124,9.93809571 C26.5482124,4.52944281 22.1803927,0.144749263 16.7927826,0.144749263" id="Fill-12" fill="#5E20E4" mask="url(#mask-4)"></path>
                </g>
                <path d="M24.4672872,14.6012062 C23.9377368,14.0356539 23.5261181,13.3737398 23.2315171,12.6152343 C22.9369161,11.8567289 22.7897299,11.0449951 22.7897299,10.179115 C22.7897299,9.30520485 22.9369161,8.48681744 23.2315171,7.72418224 C23.5261181,6.96154703 23.9377368,6.29733858 24.4672872,5.73155687 C24.6892093,5.49455261 24.9323865,5.28278597 25.1888197,5.08707965 C24.5520793,4.04683055 23.7272422,3.13575221 22.7616183,2.4001901 C22.4418768,2.65050147 22.1372196,2.92054408 21.8485609,3.21215339 C21.255245,3.81212062 20.7451213,4.47839397 20.3184184,5.21097345 C19.8914869,5.94378237 19.5630605,6.72798427 19.3324535,7.56334972 C19.1020751,8.39894461 18.9866573,9.27101934 18.9866573,10.179115 C18.9866573,11.0876696 19.1020751,11.9595149 19.3324535,12.7951098 C19.5630605,13.6307047 19.8914869,14.4105474 20.3184184,15.1346378 C20.7451213,15.8589577 21.255245,16.5188069 21.8485609,17.1141855 C22.1541323,17.4209374 22.4777591,17.704746 22.8185272,17.9669879 C23.7759233,17.2266077 24.5939039,16.313235 25.2224165,15.270921 C24.952956,15.0692494 24.6990369,14.8487643 24.4672872,14.6012062" id="Fill-15" fill="#1BFDBF"></path>
                <path d="M25.1884311,5.08691904 C25.5438264,4.8159587 25.9277905,4.57964274 26.3492368,4.38806621 C27.0746546,4.05837103 27.8729799,3.89317929 28.7439841,3.89317929 C29.4351194,3.89317929 30.0901438,4.00055392 30.7092859,4.21461488 C31.3281994,4.42890528 31.9020885,4.72877417 32.4316389,5.114451 C32.6110507,5.22595542 32.7644078,5.26862996 32.8923958,5.24293346 C33.0208409,5.21723697 33.1486004,5.11881023 33.276817,4.94719436 L34.5187579,2.82631596 C34.612692,2.63795149 34.6252622,2.47505408 34.5571543,2.33785316 C34.4888178,2.20065225 34.3823135,2.08937725 34.2369557,2.00356932 C33.4345165,1.46371354 32.5765397,1.05050475 31.6632537,0.763025238 C30.7497392,0.476234022 29.7850295,0.332379548 28.7693531,0.332379548 C27.8645235,0.332379548 26.9958048,0.450537529 26.1636541,0.686165192 C25.3312749,0.921792855 24.5521478,1.25148804 23.8265015,1.6757096 C23.4537363,1.89367093 23.0990267,2.13572271 22.7612297,2.4000295 C23.7268536,3.13536218 24.5516907,4.04666994 25.1884311,5.08691904" id="Fill-17" fill="#292E37"></path>
                <path d="M34.5701359,17.4932088 L33.3021403,15.3466339 C33.1743809,15.175018 33.0482212,15.0809505 32.9248042,15.063743 C32.8009301,15.0465356 32.6448304,15.0937988 32.4571908,15.2050737 C31.9365538,15.5907506 31.3603792,15.8908489 30.7284383,16.1049099 C30.0969546,16.3192003 29.4350737,16.4263455 28.7439384,16.4263455 C27.8729342,16.4263455 27.0746089,16.2636775 26.3491911,15.9376532 C25.9412292,15.7547951 25.5677785,15.529492 25.2222108,15.2706916 C24.5936982,16.3127761 23.7757176,17.2263782 22.8183215,17.9667584 C23.1387487,18.2138578 23.4744887,18.442373 23.8264557,18.6500098 C24.5523307,19.0785906 25.3312292,19.4085152 26.1636084,19.6397837 C26.9957591,19.8712815 27.8642493,19.9869158 28.769536,19.9869158 C29.7849838,19.9869158 30.7606639,19.8391609 31.6954336,19.5434218 C32.6302032,19.2479122 33.4945795,18.8298853 34.2883337,18.2900295 C34.4332345,18.204451 34.5399673,18.0973058 34.6085323,17.9688233 C34.6768688,17.8403409 34.6638415,17.6818027 34.5701359,17.4932088" id="Fill-19" fill="#292E37"></path>
            </g>
        </g>
    </g>
</svg>