<?xml version="1.0" encoding="UTF-8"?>
<svg width="9px" height="13px" viewBox="0 0 9 13" version="1.1" xmlns="http://www.w3.org/2000/svg" xmlns:xlink="http://www.w3.org/1999/xlink">
    <!-- Generator: Sketch 49.3 (51167) - http://www.bohemiancoding.com/sketch -->
    <title>Fill 1</title>
    <desc>Created with Sketch.</desc>
    <defs></defs>
    <g id="Page-1" stroke="none" stroke-width="1" fill="none" fill-rule="evenodd">
        <path d="M8.87845523,7.596875 C8.78805305,7.41041667 8.58942635,7.29166667 8.37064052,7.29166667 L6.13848796,7.29166667 L6.13848796,0.520833333 C6.13848796,0.233333333 5.88848687,0 5.58044982,0 L3.34829726,0 C3.04026021,0 2.79025912,0.233333333 2.79025912,0.520833333 L2.79025912,7.29166667 L0.558106564,7.29166667 C0.339355614,7.29166667 0.140728913,7.41145833 0.0502918575,7.596875 C-0.0412263974,7.78333333 -0.00551195649,8.00104167 0.138461884,8.15520833 L4.04472886,12.321875 C4.15075611,12.4354167 4.30369343,12.5 4.46437354,12.5 C4.6251234,12.5 4.77802585,12.434375 4.8840531,12.321875 L8.79032008,8.15520833 C8.93540999,8.00208333 8.96889228,7.78333333 8.87845523,7.596875" id="arrow" fill="#000000" transform="translate(4.464286, 6.250000) rotate(180.000000) translate(-4.464286, -6.250000) "></path>
    </g>
</svg>
